<svg width="80" height="65" viewBox="0 0 80 65" fill="none" xmlns="http://www.w3.org/2000/svg">
<path d="M75.0171 44.0754H79.3579L73.6815 38.1764C65.5565 29.7175 54.3151 24.9315 42.5171 24.9315H41.1815H38.2877H36.8408C25.1541 24.9315 13.9127 29.7175 5.67637 38.1764L0 44.0754H4.34075C16.0274 44.0754 27.2688 39.2894 35.5051 30.8305L39.7346 26.4897C37.286 41.4041 16.0274 65 16.0274 65H39.8459H63.6644C63.6644 65 42.6284 41.738 39.9572 26.8236L43.8528 30.9418C51.9778 39.2894 63.2192 44.0754 75.0171 44.0754Z" fill="#17A5A5"/>
<path d="M36.1727 16.25L39.623 12.6884L43.0733 16.25C49.7514 23.262 59.1007 27.1576 68.784 27.1576H72.3456L67.671 22.2603C60.9929 15.2483 51.6436 11.3528 41.9603 11.3528H40.8473H38.3987H37.2857C27.6025 11.3528 18.3644 15.2483 11.575 22.2603L6.90039 27.2689H10.462C20.1453 27.2689 29.4946 23.262 36.1727 16.25Z" fill="#17A5A5"/>
<path d="M36.8405 4.00685L39.623 1.11301L42.4055 4.00685C47.8593 9.68322 55.4278 12.911 63.3302 12.911H66.224L62.4398 8.90411C56.986 3.22774 49.4175 0 41.5151 0H40.6247H38.6213H37.7309C29.8285 0 22.26 3.22774 16.8062 8.90411L13.022 12.911H15.9158C23.8182 12.911 31.3867 9.68322 36.8405 4.00685Z" fill="#17A5A5"/>
</svg>
