<svg width="1440" height="413" viewBox="0 0 1440 413" fill="none" xmlns="http://www.w3.org/2000/svg">
<path fill-rule="evenodd" clip-rule="evenodd" d="M0 257.827L27.2833 249.471C54.5667 241.116 109.133 224.405 163.7 214.855C218.267 206.5 272.833 206.5 327.4 224.405C381.967 241.116 436.533 275.731 491.1 267.376C545.667 257.827 600.233 206.5 654.8 214.855C709.367 224.405 763.933 292.442 818.5 300.798C873.067 310.347 927.633 257.827 982.2 232.76C1036.77 206.5 1091.33 206.5 1145.9 189.789C1200.47 171.884 1255.03 138.462 1309.6 163.529C1364.17 189.789 1418.73 275.731 1473.3 257.827C1527.87 241.116 1582.43 120.558 1609.72 60.8757L1637 0V413H1609.72C1582.43 413 1527.87 413 1473.3 413C1418.73 413 1364.17 413 1309.6 413C1255.03 413 1200.47 413 1145.9 413C1091.33 413 1036.77 413 982.2 413C927.633 413 873.067 413 818.5 413C763.933 413 709.367 413 654.8 413C600.233 413 545.667 413 491.1 413C436.533 413 381.967 413 327.4 413C272.833 413 218.267 413 163.7 413C109.133 413 54.5667 413 27.2833 413H0V257.827Z" fill="#5270FF"/>
</svg>
